<?xml version="1.0" encoding="iso-8859-1"?>
<!-- Uploaded to: SVG Repo, www.svgrepo.com, Generator: SVG Repo Mixer Tools -->
<!DOCTYPE svg PUBLIC "-//W3C//DTD SVG 1.1//EN" "http://www.w3.org/Graphics/SVG/1.1/DTD/svg11.dtd">
<svg fill="#000000" version="1.1" id="Capa_1" xmlns="http://www.w3.org/2000/svg" xmlns:xlink="http://www.w3.org/1999/xlink" 
	 width="800px" height="800px" viewBox="0 0 482.528 482.528"
	 xml:space="preserve">
<g>
	<g>
		<path d="M33.731,472.217c0,0,118.957-57.896,161.854-73.075c42.894-15.172,129.293,83.387,129.293,83.387l10.648-171.482
			l113.27-123.375c0,0-26.946-3.023-89.902,46.049c-49.54,38.602-59.446,4.995-61.422-11.108l54.484-120.024
			c2.581-4.608,9.445-15.028,18.759-14.781c0,0,16.238-47.29,36.944-54.602c0,0,0.822-18.313,2.353-33.205l-96.679,63.251
			c0,0,13.621,9.938,9.697,25.844l-0.2-0.096l-50.196,110.595c-16.899,8.049-24.887-13.431-24.887-13.431l-79.295,97.813
			c36.96-16.835,20.049,7.606,20.049,7.606L33.731,472.217z"/>
	</g>
</g>
</svg>