<?xml version="1.0" encoding="iso-8859-1"?>
<!-- Uploaded to: SVG Repo, www.svgrepo.com, Generator: SVG Repo Mixer Tools -->
<svg fill="#000000" height="800px" width="800px" version="1.1" id="Capa_1" xmlns="http://www.w3.org/2000/svg" xmlns:xlink="http://www.w3.org/1999/xlink" 
	 viewBox="0 0 121.669 121.669" xml:space="preserve">
<g>
	<path d="M60.835,121.669c-33.544,0-60.834-27.29-60.834-60.835C0.001,27.29,27.291,0,60.835,0s60.834,27.29,60.834,60.834
		C121.669,94.379,94.379,121.669,60.835,121.669z M60.835,6C30.6,6,6.001,30.599,6.001,60.834c0,30.236,24.599,54.835,54.834,54.835
		s54.834-24.599,54.834-54.835C115.669,30.599,91.071,6,60.835,6z"/>
	<polygon points="70.992,83.091 66.749,78.848 60.636,84.961 54.521,78.848 50.279,83.091 56.392,89.204 50.279,95.317 
		54.521,99.561 60.636,93.447 66.749,99.561 70.992,95.317 64.879,89.204 	"/>
	<circle cx="26.829" cy="60.835" r="8.364"/>
	<circle cx="94.842" cy="60.835" r="8.364"/>
</g>
</svg>