<?xml version="1.0" encoding="iso-8859-1"?>
<!-- Uploaded to: SVG Repo, www.svgrepo.com, Generator: SVG Repo Mixer Tools -->
<!DOCTYPE svg PUBLIC "-//W3C//DTD SVG 1.1//EN" "http://www.w3.org/Graphics/SVG/1.1/DTD/svg11.dtd">
<svg fill="#000000" version="1.1" id="Capa_1" xmlns="http://www.w3.org/2000/svg" xmlns:xlink="http://www.w3.org/1999/xlink" 
	 width="800px" height="800px" viewBox="0 0 41.498 41.497"
	 xml:space="preserve">
<g>
	<path d="M22.185,19.109v-1.016h0.312v-1.047h0.516V16h0.547v-1.25H24v-1.113c0.277,0.049,0.559,0.08,0.849,0.08
		c2.903,0,5.267-2.502,5.267-5.577c0-3.075-2.362-5.577-5.267-5.577c-0.739,0-1.442,0.164-2.082,0.456
		c0.009-0.093,0.022-0.184,0.022-0.279C22.79,1.227,21.81,0,20.604,0c-1.208,0-2.187,1.227-2.187,2.739
		c0,0.055,0.01,0.104,0.013,0.158c-0.558-0.211-1.156-0.334-1.782-0.334c-2.903,0-5.265,2.501-5.265,5.577
		c0,3.076,2.362,5.577,5.265,5.577c0.189,0,0.375-0.012,0.559-0.032v1.065h0.542V16h0.547v1.047h0.516v1.047h0.313v1.016h0.28
		v12.023h-1.52v1.375h1.52v0.904h-4.161v3.307h1.773v-1.654h0.708v1.654h1.656v0.708h-1.656v1.658h-0.708v-1.658h-1.773v2.987h4.161
		v1.083h2.5v-1.083h4.162v-2.987h-1.773v1.658h-0.708v-1.658h-1.656v-0.708h1.656v-1.654h0.708v1.654h1.773v-3.307h-4.162v-0.904
		h1.277v-1.375h-1.277V19.109H22.185z M24,4.024c0.272-0.065,0.557-0.103,0.849-0.103c2.154,0,3.907,1.892,3.907,4.218
		c0,2.326-1.753,4.218-3.907,4.218c-0.292,0-0.574-0.037-0.849-0.104V4.024z M17.207,12.31c-0.183,0.028-0.368,0.048-0.559,0.048
		c-2.154,0-3.906-1.892-3.906-4.218c0-2.326,1.752-4.218,3.906-4.218c0.19,0,0.376,0.02,0.559,0.047V12.31z"/>
</g>
</svg>